<svg>
    <defs>
        <symbol id="alt_description">
            <path d="M150.669,175.999c-1.553-0.023-2.989-0.756-3.921-2l0,0l-28.501-38H4.999c-1.316,0-2.605-0.532-3.536-1.464l0,0&#9;&#9;&#9;C0.531,133.604,0,132.316,0,131l0,0v-30c0-1.915,1.085-3.654,2.806-4.493l0,0l73.748-36.001c1.201-0.587,2.594-0.665,3.854-0.223&#9;&#9;&#9;l0,0c1.262,0.444,2.295,1.378,2.864,2.588l0,0L97.253,92.58l144.744-58.942V9.999H9.998V56c0,2.761-2.238,4.999-4.999,4.999l0,0&#9;&#9;&#9;C2.238,60.999,0,58.761,0,56l0,0V4.999c0-1.316,0.531-2.604,1.463-3.536l0,0C2.394,0.534,3.683,0,4.999,0l0,0h241.999&#9;&#9;&#9;c1.316,0,2.605,0.534,3.536,1.463l0,0c0.929,0.932,1.463,2.22,1.463,3.536l0,0v32.002c0,2.038-1.227,3.86-3.112,4.628l0,0&#9;&#9;&#9;L96.634,103.631c-2.459,1-5.28-0.1-6.41-2.501l0,0l-13.84-29.413L9.995,104.122V126h110.753c1.571,0,3.059,0.742,3.999,2l0,0&#9;&#9;&#9;l26.128,34.836l27.97-34.959c0.947-1.187,2.385-1.877,3.904-1.877l0,0h59.25V75.999c0-2.761,2.238-4.996,4.999-4.996l0,0&#9;&#9;&#9;c2.761,0,4.999,2.235,4.999,4.996l0,0V131c0,1.335-0.52,2.59-1.463,3.535l0,0c-0.945,0.946-2.2,1.464-3.536,1.464l0,0h-61.845&#9;&#9;&#9;l-30.501,38.123c-0.953,1.192-2.382,1.878-3.905,1.878l0,0C150.721,176,150.695,175.999,150.669,175.999L150.669,175.999z"/><circle fill-rule="evenodd" clip-rule="evenodd" cx="119.249" cy="45.501" r="18.5"/>
        </symbol>

        <symbol id="brigth_contrast">
            <path d="M9.962,43.885c0-0.923,0.748-1.669,1.669-1.669l0,0h69.177V3.504L52.25,3.505c-0.922,0-1.669-0.747-1.669-1.669l0,0&#9;&#9;&#9;c0-0.922,0.747-1.669,1.669-1.669l0,0h30.226c0.44,0,0.87,0.179,1.181,0.489l0,0c0.311,0.311,0.488,0.74,0.488,1.18l0,0v42.049&#9;&#9;&#9;c0,0.438-0.178,0.868-0.488,1.179l0,0c-0.311,0.311-0.74,0.489-1.181,0.489l0,0H11.631v0.001&#9;&#9;&#9;C10.71,45.554,9.962,44.806,9.962,43.885L9.962,43.885z"/><path d="M22.24,53.229c-0.922,0-1.669-0.748-1.669-1.669l0,0c0-0.921,0.747-1.669,1.669-1.669l0,0h39.713&#9;&#9;&#9;c0.921,0,1.668,0.748,1.668,1.669l0,0c0,0.921-0.747,1.669-1.668,1.669l0,0H22.24L22.24,53.229z"/><path d="M1.621,44.563c-0.651-0.65-0.651-1.708,0-2.358l0,0L43.336,0.488c0.651-0.65,1.708-0.65,2.359,0l0,0&#9;&#9;&#9;c0.652,0.652,0.652,1.709,0,2.36l0,0L3.981,44.563c-0.326,0.326-0.754,0.489-1.181,0.489l0,0&#9;&#9;&#9;C2.374,45.052,1.947,44.889,1.621,44.563L1.621,44.563z"/><path d="M0.609,36.148c-0.651-0.652-0.651-1.708,0-2.359l0,0l33.299-33.3c0.652-0.651,1.708-0.651,2.36,0l0,0&#9;&#9;&#9;c0.651,0.651,0.651,1.708,0,2.359l0,0l-33.3,33.3c-0.326,0.326-0.753,0.488-1.181,0.488l0,0C1.361,36.637,0.935,36.475,0.609,36.148&#9;&#9;&#9;L0.609,36.148z"/><path d="M0.631,26.699c-0.651-0.652-0.651-1.709,0-2.36l0,0l23.85-23.85c0.652-0.652,1.708-0.652,2.359,0l0,0&#9;&#9;&#9;c0.652,0.651,0.652,1.708,0,2.359l0,0L2.99,26.699c-0.326,0.325-0.753,0.488-1.18,0.488l0,0C1.384,27.188,0.957,27.024,0.631,26.699&#9;&#9;&#9;L0.631,26.699z"/><path d="M0.488,17.414c-0.651-0.651-0.651-1.707,0-2.359l0,0L15.053,0.488c0.652-0.651,1.709-0.651,2.36,0l0,0&#9;&#9;&#9;c0.651,0.652,0.651,1.709,0,2.36l0,0L2.847,17.414c-0.325,0.326-0.752,0.489-1.179,0.489l0,0C1.24,17.903,0.813,17.74,0.488,17.414&#9;&#9;&#9;L0.488,17.414z"/><path d="M0.565,7.909c-0.652-0.651-0.652-1.708,0-2.359l0,0l5.061-5.062c0.651-0.651,1.708-0.651,2.359,0l0,0&#9;&#9;&#9;c0.651,0.652,0.651,1.709,0,2.36l0,0L2.925,7.909c-0.326,0.326-0.753,0.489-1.18,0.489l0,0C1.318,8.398,0.891,8.235,0.565,7.909&#9;&#9;&#9;L0.565,7.909z"/>
        </symbol>

        <symbol id="cursor_bb">
            <path d="M153.977,134.132L77.271,57.428c-1.952-1.955-1.952-5.12,0-7.072l0,0l40.314-40.314l-107.155,0.39l-0.388,107.155&#9;&#9;&#9;l15.197-15.195c1.952-1.954,5.118-1.954,7.07,0l0,0c1.951,1.952,1.951,5.116,0,7.07l0,0L8.537,133.233&#9;&#9;&#9;c-1.431,1.429-3.591,1.859-5.459,1.08l0,0c-1.866-0.777-3.085-2.611-3.078-4.633l0,0L0.449,5.431&#9;&#9;&#9;C0.46,2.684,2.684,0.457,5.431,0.448l0,0L129.683,0c2.022-0.009,3.856,1.212,4.634,3.077l0,0c0.778,1.866,0.349,4.029-1.081,5.458&#9;&#9;&#9;l0,0L87.878,53.891l73.17,73.17v0.002c1.952,1.952,1.952,5.118,0,7.069l0,0c-0.977,0.978-2.256,1.465-3.535,1.465l0,0&#9;&#9;&#9;C156.232,135.597,154.952,135.108,153.977,134.132L153.977,134.132z"/><path d="M121.682,166.429L44.977,89.724c-1.952-1.952-1.952-5.117,0-7.072l0,0c1.952-1.952,5.118-1.952,7.07,0l0,0l76.704,76.705&#9;&#9;&#9;c1.952,1.952,1.952,5.117,0,7.072l0,0c-0.976,0.975-2.255,1.462-3.535,1.462l0,0C123.937,167.891,122.657,167.403,121.682,166.429&#9;&#9;&#9;L121.682,166.429z"/><path d="M12.559,116.303L12.562,7.096c0-2.761,2.238-4.998,5.001-4.998l0,0c2.76,0,4.998,2.237,4.998,5l0,0v109.205&#9;&#9;&#9;c-0.002,2.76-2.24,5.001-5.001,5.001l0,0C14.797,121.301,12.559,119.063,12.559,116.303L12.559,116.303z"/><path d="M27.507,94.714V5.753c0-2.761,2.237-5,5-5l0,0c2.761,0,5,2.239,5,5l0,0v88.961c0,2.76-2.239,4.997-5,4.997l0,0&#9;&#9;&#9;C29.744,99.711,27.507,97.474,27.507,94.714L27.507,94.714z"/><path d="M41.553,78.564V5.611c0-2.763,2.24-5,5.001-5l0,0c2.762,0,5,2.237,5,5l0,0v72.953c0,2.761-2.238,5-5,5l0,0&#9;&#9;&#9;C43.793,83.564,41.553,81.325,41.553,78.564L41.553,78.564z"/><path d="M55.154,94.281V6.187c-0.003-2.763,2.236-4.999,4.997-4.999l0,0c2.763,0,5,2.236,5,4.999l0,0l0.002,88.093&#9;&#9;&#9;c0,2.763-2.239,5-5,5l0,0C57.391,99.281,55.154,97.042,55.154,94.281L55.154,94.281z"/><path d="M70.102,111.082L70.099,5.775c0-2.764,2.239-5,5-5l0,0C77.86,0.773,80.1,3.012,80.1,5.773l0,0V111.08&#9;&#9;&#9;c0,2.764-2.239,5-5.001,5.002l0,0C72.338,116.082,70.102,113.844,70.102,111.082L70.102,111.082z"/><path d="M84.149,125.836l-0.002-53.104c0-2.762,2.238-5,4.999-5l0,0c2.764,0,5.002,2.238,5.002,5l0,0v53.104&#9;&#9;&#9;c0,2.762-2.238,5-5,5.002l0,0C86.388,130.838,84.149,128.598,84.149,125.836L84.149,125.836z"/><path d="M84.146,44.784V5.631c0-2.763,2.238-5.001,5.001-5.001l0,0c2.761,0,4.999,2.238,4.999,5.001l0,0v39.153&#9;&#9;&#9;c0,2.761-2.238,5.001-4.999,5.001l0,0C86.385,49.785,84.146,47.545,84.146,44.784L84.146,44.784z"/><path d="M97.075,138.097V84.845c0-2.763,2.236-5.002,4.999-5.002l0,0c2.761,0,5,2.239,5,5.002l0,0v53.252&#9;&#9;&#9;c0,2.763-2.239,5.001-5,5.001l0,0C99.312,143.098,97.075,140.859,97.075,138.097L97.075,138.097z"/><path d="M97.074,31.391V5.961c0-2.761,2.239-5.001,5.001-5.001l0,0c2.761,0,5,2.24,5,5.001l0,0v25.43c0,2.761-2.239,5-5,5l0,0&#9;&#9;&#9;C99.313,36.391,97.074,34.151,97.074,31.391L97.074,31.391z"/><path d="M112.02,153.309V100.99c0-2.761,2.238-4.999,5.001-4.999l0,0c2.761,0,4.999,2.238,4.999,5.001l0,0v52.318&#9;&#9;&#9;c-0.002,2.761-2.24,4.999-5.001,4.999l0,0C114.258,158.31,112.018,156.071,112.02,153.309L112.02,153.309z"/><path d="M112.021,13.073v-7.95c0-2.762,2.236-5.001,4.999-5.001l0,0c2.76,0,4.999,2.239,4.999,5.001l0,0v7.95&#9;&#9;&#9;c0,2.762-2.239,5.001-4.999,5.001l0,0C114.257,18.074,112.021,15.835,112.021,13.073L112.021,13.073z"/><path d="M126.067,155.266v-40.817c0-2.761,2.238-5,4.999-5l0,0c2.762,0,5.003,2.239,5.003,5l0,0v40.817&#9;&#9;&#9;c0,2.762-2.241,5.003-5.003,5.003l0,0C128.306,160.269,126.067,158.027,126.067,155.266L126.067,155.266z"/><path d="M139.667,140.912v-11.661c0-2.762,2.24-5.001,5.001-4.999l0,0c2.761,0,4.999,2.237,4.999,4.999l0,0v11.663&#9;&#9;&#9;c0,2.761-2.24,4.999-5.001,4.999l0,0C141.904,145.913,139.665,143.675,139.667,140.912L139.667,140.912z"/>
        </symbol>

        <symbol id="cursor_bw">
            <path d="M153.974,134.132L77.269,57.428c-1.952-1.955-1.952-5.12,0-7.072l0,0l40.314-40.314L10.428,10.426l-0.388,107.16&#9;&#9;l15.197-15.195c1.952-1.954,5.118-1.954,7.069,0l0,0c1.955,1.952,1.955,5.116,0,7.07l0,0L8.534,133.233&#9;&#9;c-1.431,1.429-3.591,1.859-5.459,1.08l0,0c-1.866-0.777-3.085-2.611-3.075-4.633l0,0L0.448,5.428&#9;&#9;C0.457,2.682,2.683,0.457,5.43,0.446l0,0L129.68,0c2.022-0.009,3.856,1.212,4.633,3.077l0,0c0.779,1.866,0.35,4.029-1.077,5.458&#9;&#9;l0,0l-45.36,45.355l73.17,73.17v0.002c1.952,1.952,1.952,5.118,0,7.069l0,0c-0.977,0.978-2.256,1.465-3.535,1.465l0,0&#9;&#9;C156.229,135.597,154.949,135.108,153.974,134.132L153.974,134.132z"/><path d="M121.677,166.429L44.973,89.724c-1.952-1.952-1.952-5.117,0-7.072l0,0c1.954-1.952,5.118-1.952,7.072,0l0,0l76.704,76.705&#9;&#9;c1.952,1.952,1.952,5.117,0,7.072l0,0c-0.977,0.975-2.256,1.462-3.536,1.462l0,0C123.934,167.891,122.654,167.403,121.677,166.429&#9;&#9;L121.677,166.429z"/>
        </symbol>

        <symbol id="dark_contrast">
            <path d="M31.311,35.539c0-0.746,0.604-1.352,1.352-1.352l0,0h32.779V1.486h0.001c0-0.746,0.604-1.351,1.351-1.351l0,0&#9;&#9;&#9;c0.746,0,1.351,0.604,1.351,1.351l0,0v34.053c0,0.356-0.144,0.703-0.396,0.955l0,0c-0.251,0.252-0.6,0.396-0.955,0.396l0,0H32.662&#9;&#9;&#9;C31.915,36.891,31.311,36.286,31.311,35.539L31.311,35.539z"/><path d="M18.012,43.106c-0.746,0-1.352-0.605-1.352-1.351l0,0c0-0.747,0.605-1.353,1.352-1.353l0,0h32.161&#9;&#9;&#9;c0.745,0,1.351,0.605,1.351,1.353l0,0c0,0.745-0.605,1.351-1.351,1.351l0,0H18.012L18.012,43.106z"/><path d="M24.218,36.089c-0.527-0.527-0.527-1.383,0-1.91l0,0L58,0.396c0.528-0.527,1.384-0.527,1.911,0l0,0&#9;&#9;&#9;c0.527,0.528,0.527,1.384,0,1.912l0,0L26.129,36.089c-0.264,0.264-0.61,0.396-0.956,0.396l0,0&#9;&#9;&#9;C24.827,36.485,24.481,36.353,24.218,36.089L24.218,36.089z"/><path d="M16.583,36.089c-0.527-0.527-0.527-1.383,0-1.911l0,0L50.365,0.396c0.527-0.527,1.383-0.527,1.911,0l0,0&#9;&#9;&#9;c0.527,0.528,0.527,1.384,0,1.911l0,0L18.494,36.089c-0.264,0.264-0.609,0.396-0.956,0.396l0,0&#9;&#9;&#9;C17.192,36.485,16.847,36.353,16.583,36.089L16.583,36.089z"/><path d="M8.948,36.089c-0.527-0.527-0.527-1.383,0-1.91l0,0L42.73,0.396c0.528-0.527,1.383-0.527,1.911,0l0,0&#9;&#9;&#9;c0.527,0.528,0.527,1.384,0,1.911l0,0L10.859,36.089c-0.264,0.264-0.609,0.396-0.956,0.396l0,0&#9;&#9;&#9;C9.558,36.484,9.212,36.353,8.948,36.089L8.948,36.089z"/><path d="M1.313,36.089c-0.527-0.527-0.527-1.383,0-1.911l0,0L35.095,0.396c0.529-0.527,1.385-0.527,1.912,0l0,0&#9;&#9;&#9;c0.527,0.528,0.527,1.384,0,1.912l0,0L3.225,36.089c-0.264,0.264-0.609,0.396-0.955,0.396l0,0&#9;&#9;&#9;C1.923,36.484,1.577,36.353,1.313,36.089L1.313,36.089z"/><path d="M0.494,29.274c-0.528-0.528-0.528-1.384,0-1.911l0,0L27.46,0.396c0.529-0.527,1.385-0.527,1.912,0l0,0&#9;&#9;&#9;c0.527,0.528,0.527,1.384,0,1.911l0,0L2.405,29.274c-0.265,0.264-0.61,0.396-0.956,0.396l0,0C1.104,29.67,0.757,29.538,0.494,29.274&#9;&#9;&#9;L0.494,29.274z"/><path d="M0.512,21.622c-0.528-0.528-0.528-1.384,0-1.911l0,0L19.826,0.396c0.527-0.527,1.383-0.527,1.911,0l0,0&#9;&#9;&#9;c0.527,0.528,0.527,1.384,0,1.912l0,0L2.423,21.622c-0.265,0.264-0.61,0.396-0.956,0.396l0,0&#9;&#9;&#9;C1.121,22.018,0.775,21.886,0.512,21.622L0.512,21.622z"/><path d="M0.396,14.103c-0.527-0.527-0.527-1.383,0-1.911l0,0L12.191,0.396c0.528-0.528,1.383-0.528,1.911,0l0,0&#9;&#9;&#9;c0.527,0.527,0.527,1.383,0,1.91l0,0L2.307,14.103c-0.264,0.264-0.609,0.396-0.956,0.396l0,0&#9;&#9;&#9;C1.005,14.498,0.659,14.366,0.396,14.103L0.396,14.103z"/><path d="M0.458,6.405c-0.527-0.527-0.527-1.383,0-1.91l0,0l4.099-4.1c0.527-0.527,1.384-0.527,1.911,0l0,0&#9;&#9;&#9;c0.528,0.528,0.528,1.384,0,1.912l0,0L2.369,6.405C2.105,6.669,1.76,6.802,1.414,6.802l0,0C1.068,6.802,0.723,6.669,0.458,6.405&#9;&#9;&#9;L0.458,6.405z"/>
        </symbol>

        <symbol id="decrease_font_size">
            <path d="M17.883,16.867h-2.57c-1.478-2.356-3.822-5.611-7.035-9.767c-0.75,0.407-1.371,1.065-1.864,1.976&#9;&#9;&#9;c-0.492,0.91-0.738,1.805-0.738,2.683v5.108H3.361v-4.69c0-1.222,0.396-2.452,1.189-3.695c0.792-1.242,1.744-2.077,2.858-2.506&#9;&#9;&#9;c-0.493-0.685-1.21-1.595-2.152-2.73L2.559,0h2.698c1.285,1.542,3.48,4.338,6.586,8.386c0.686-0.193,1.312-0.686,1.88-1.479&#9;&#9;&#9;c0.566-0.792,0.852-1.553,0.852-2.281V0h2.313v3.662c0,1.329-0.385,2.55-1.156,3.663s-1.777,1.896-3.021,2.346&#9;&#9;&#9;C14.895,12.52,16.619,14.918,17.883,16.867z"/><path d="M9.365,37.118l-8.89-7.452v0.001c-0.563-0.474-0.638-1.313-0.164-1.876l0,0c0.471-0.563,1.311-0.637,1.874-0.165l0,0&#9;&#9;&#9;l8.035,6.735l8.035-6.735c0.563-0.472,1.401-0.397,1.875,0.165l0,0c0.471,0.563,0.396,1.402-0.166,1.875l0,0l-8.889,7.452&#9;&#9;&#9;c-0.249,0.208-0.553,0.312-0.855,0.312l0,0C9.916,37.43,9.613,37.326,9.365,37.118L9.365,37.118z"/>
        </symbol>

        <symbol id="font_family">
            <path d="M140.688,117.99H91.245c-8.241-12.885-20.979-31.914-38.206-57.084c-2.101,0.15-3.747,2.696-4.945,7.642&#9;&#9;&#9;c-1.05,3.746-1.572,7.117-1.572,10.111v39.331H4.942V92.594c0-11.536,2.772-21.497,8.317-29.892&#9;&#9;&#9;c5.991-8.989,14.383-14.979,25.171-17.979C27.192,30.341,14.382,15.435,0,0h53.713c7.939,10.338,19.625,26.446,35.06,48.32&#9;&#9;&#9;c3.146-1.496,4.719-7.939,4.719-19.327V0h41.804v15.059c0,25.771-10.94,42.554-32.814,50.343&#9;&#9;&#9;c1.648,2.398,7.34,10.189,17.081,23.371C123.305,94.021,130.35,103.758,140.688,117.99z"/>
        </symbol>

        <symbol id="highlight_links">
            <path d="M38.941,186.726L1.464,149.248c-1.951-1.951-1.951-5.116,0-7.07l0,0l21.216-21.213c1.951-1.952,5.116-1.952,7.07,0l0,0&#9;&#9;&#9;c1.952,1.954,1.952,5.119,0,7.07l0,0l-17.678,17.679l30.405,30.403l35.354-35.354l24.043-24.04l19.091-19.093L90.563,67.224&#9;&#9;&#9;L58.034,99.752h0.003c-1.954,1.954-5.122,1.954-7.074,0l0,0c-1.954-1.952-1.954-5.12,0-7.071l0,0l36.063-36.063&#9;&#9;&#9;c1.952-1.954,5.119-1.954,7.071,0l0,0l37.477,37.478c0.944,0.943,1.463,2.198,1.463,3.534l0,0c0,1.335-0.519,2.59-1.463,3.536l0,0&#9;&#9;&#9;l-22.628,22.628l-24.039,24.04l-38.895,38.892c-0.943,0.946-2.198,1.465-3.534,1.465l0,0&#9;&#9;&#9;C41.142,188.19,39.888,187.672,38.941,186.726L38.941,186.726z"/><path d="M54.498,131.571L17.022,94.095c-1.955-1.951-1.955-5.119,0-7.071l0,0l21.212-21.212l28.287-28.287l36.062-36.062&#9;&#9;&#9;c1.951-1.951,5.116-1.951,7.071,0l0,0l37.476,37.477c0.945,0.945,1.466,2.201,1.466,3.537l0,0c0,1.335-0.521,2.589-1.466,3.534l0,0&#9;&#9;&#9;L124.503,68.64c-1.951,1.952-5.119,1.952-7.071,0l0,0c-1.954-1.952-1.954-5.119,0-7.071l0,0l19.092-19.092l-30.406-30.407&#9;&#9;&#9;L73.59,44.597L45.307,72.88L27.629,90.558l30.403,30.407l35.356-35.355h0.002c1.952-1.952,5.117-1.952,7.069,0l0,0&#9;&#9;&#9;c1.952,1.952,1.952,5.117,0,7.071l0,0l-38.891,38.891c-0.945,0.945-2.199,1.465-3.534,1.465l0,0&#9;&#9;&#9;C56.7,133.036,55.443,132.517,54.498,131.571L54.498,131.571z"/>
        </symbol>

        <symbol id="highlight_titles">
            <path d="M40.736,66.381h66.485V25.434c0-7.316-0.458-12.137-1.371-14.458c-0.705-1.758-2.182-3.271-4.433-4.537&#9;&#9;&#9;c-3.025-1.689-6.227-2.534-9.604-2.534h-5.065V0h61.209v3.904h-5.065c-3.377,0-6.58,0.81-9.604,2.428&#9;&#9;&#9;c-2.252,1.127-3.783,2.833-4.591,5.118c-0.81,2.288-1.213,6.948-1.213,13.983v92.342c0,7.247,0.456,12.031,1.371,14.353&#9;&#9;&#9;c0.703,1.759,2.146,3.271,4.327,4.538c3.096,1.688,6.332,2.533,9.709,2.533h5.065v3.904H86.749v-3.904h5.065&#9;&#9;&#9;c5.839,0,10.095-1.724,12.77-5.172c1.758-2.25,2.638-7.668,2.638-16.252V74.189H40.736v43.586c0,7.247,0.457,12.031,1.372,14.353&#9;&#9;&#9;c0.702,1.759,2.18,3.271,4.433,4.538c3.024,1.688,6.226,2.533,9.604,2.533h5.17v3.904H0v-3.904h5.065&#9;&#9;&#9;c5.91,0,10.2-1.724,12.875-5.172c1.689-2.25,2.534-7.668,2.534-16.252V25.434c0-7.316-0.46-12.137-1.373-14.458&#9;&#9;&#9;c-0.704-1.758-2.146-3.271-4.326-4.537c-3.098-1.689-6.333-2.534-9.71-2.534H0V0h61.314v3.904h-5.17&#9;&#9;&#9;c-3.378,0-6.579,0.81-9.604,2.428c-2.182,1.127-3.693,2.833-4.538,5.118c-0.845,2.288-1.267,6.948-1.267,13.983V66.381z"/>
        </symbol>

        <symbol id="increase_font_size">
            <path d="M27.568,46.425h-4.624c-2.659-4.238-6.878-10.094-12.657-17.569c-1.349,0.732-2.467,1.917-3.352,3.555&#9;&#9;&#9;c-0.887,1.638-1.33,3.246-1.33,4.825v9.189h-4.16v-8.438c0-2.197,0.712-4.411,2.139-6.646c1.424-2.234,3.139-3.736,5.143-4.508&#9;&#9;&#9;C7.84,25.6,6.55,23.963,4.854,21.92L0,16.083h4.854c2.312,2.774,6.261,7.803,11.849,15.084c1.232-0.347,2.359-1.232,3.38-2.658&#9;&#9;&#9;c1.021-1.425,1.532-2.793,1.532-4.104v-8.322h4.161v6.588c0,2.39-0.693,4.586-2.081,6.589c-1.387,2.004-3.198,3.41-5.433,4.22&#9;&#9;&#9;C22.193,38.604,25.294,42.919,27.568,46.425z"/><path d="M21.818,9.805l-8.034-6.736L5.75,9.805c-0.564,0.472-1.403,0.397-1.875-0.165l0,0C3.402,9.075,3.476,8.237,4.039,7.765l0,0&#9;&#9;&#9;l8.89-7.453c0.495-0.415,1.215-0.415,1.71,0l0,0l8.89,7.453h0.001c0.563,0.473,0.637,1.312,0.164,1.875l0,0&#9;&#9;&#9;c-0.264,0.313-0.642,0.476-1.021,0.476l0,0C22.37,10.115,22.067,10.013,21.818,9.805L21.818,9.805z"/>
        </symbol>

        <symbol id="monochrome">
            <path d="M62.121,19.896L46.072,8.236c-4.245-3.083-9.146-4.562-14.015-4.562l0,0c-7.391,0.002-14.665,3.41-19.339,9.845l0,0&#9;&#9;&#9;c-0.596,0.82-1.745,1.003-2.565,0.406l0,0C9.331,13.33,9.149,12.18,9.746,11.36l0,0C15.134,3.942,23.544-0.003,32.057,0l0,0&#9;&#9;&#9;c5.612-0.001,11.289,1.713,16.174,5.264l0,0l16.05,11.661c0.82,0.596,1.002,1.746,0.405,2.565l0,0&#9;&#9;&#9;c-0.359,0.495-0.92,0.757-1.488,0.757l0,0C62.824,20.247,62.447,20.133,62.121,19.896L62.121,19.896z"/><path d="M32.98,41.28c-5.612,0.001-11.289-1.714-16.174-5.264l0,0L0.757,24.356c-0.821-0.596-1.003-1.745-0.406-2.565l0,0&#9;&#9;&#9;c0.596-0.821,1.745-1.003,2.566-0.407l0,0l16.049,11.66c4.243,3.082,9.145,4.561,14.014,4.562l0,0&#9;&#9;&#9;c7.391-0.003,14.665-3.411,19.34-9.846l0,0v0.001c0.596-0.821,1.745-1.003,2.565-0.407l0,0c0.821,0.596,1.002,1.745,0.406,2.566l0,0&#9;&#9;&#9;C49.906,37.334,41.5,41.28,32.99,41.28l0,0C32.987,41.28,32.984,41.28,32.98,41.28L32.98,41.28z"/><path d="M32.125,33.106c0-1.014,0.823-1.836,1.837-1.836l0,0c5.813-0.01,10.517-4.714,10.528-10.528l0,0&#9;&#9;&#9;c-0.011-5.814-4.714-10.517-10.528-10.527l0,0c-1.015,0-1.837-0.823-1.837-1.837l0,0c0-1.015,0.823-1.837,1.837-1.837l0,0&#9;&#9;&#9;c7.844,0.001,14.2,6.357,14.202,14.201l0,0c-0.001,7.844-6.358,14.2-14.202,14.202l0,0C32.948,34.943,32.125,34.121,32.125,33.106&#9;&#9;&#9;L32.125,33.106z"/><path d="M25.448,33.165V8.319c0-1.015,0.822-1.837,1.836-1.837l0,0c1.015,0,1.837,0.823,1.837,1.837l0,0v24.845&#9;&#9;&#9;c0,1.014-0.823,1.837-1.837,1.837l0,0C26.271,35.001,25.448,34.179,25.448,33.165L25.448,33.165z"/><path d="M19.303,29.042V12.442c0-1.015,0.822-1.837,1.837-1.837l0,0c1.014,0,1.837,0.822,1.837,1.837l0,0v16.601&#9;&#9;&#9;c0,1.014-0.823,1.836-1.837,1.836l0,0C20.125,30.879,19.303,30.056,19.303,29.042L19.303,29.042z"/><path d="M13.542,23.731v-5.979c0-1.015,0.822-1.837,1.837-1.837l0,0c1.014,0,1.836,0.822,1.836,1.837l0,0v5.979&#9;&#9;&#9;c0,1.015-0.822,1.836-1.836,1.836l0,0C14.365,25.567,13.542,24.746,13.542,23.731L13.542,23.731z"/>
        </symbol>

        <symbol id="zoom">
            <path d="M35.477,83.502C35.481,37.384,72.86,0.004,118.979,0l0,0c46.117,0.004,83.496,37.384,83.5,83.502l0,0&#9;&#9;&#9;c-0.004,46.117-37.383,83.496-83.5,83.498l0,0C72.86,166.998,35.481,129.619,35.477,83.502L35.477,83.502z M67.007,31.529&#9;&#9;&#9;C53.696,44.845,45.48,63.189,45.479,83.502l0,0c0.002,20.311,8.218,38.654,21.528,51.971l0,0&#9;&#9;&#9;c13.316,13.309,31.66,21.526,51.973,21.529l0,0c20.311-0.003,38.656-8.221,51.971-21.529l0,0&#9;&#9;&#9;c13.31-13.316,21.526-31.66,21.528-51.971l0,0c-0.002-20.313-8.219-38.657-21.528-51.973l0,0&#9;&#9;&#9;c-13.314-13.31-31.66-21.526-51.971-21.528l0,0C98.667,10.003,80.323,18.22,67.007,31.529L67.007,31.529z"/><path d="M212.061,199.712l-48.792-48.792c-1.951-1.953-1.951-5.118,0-7.071l0,0c1.953-1.953,5.118-1.953,7.071,0l0,0l48.792,48.79&#9;&#9;&#9;c1.952,1.953,1.952,5.117,0,7.073l0,0c-0.977,0.975-2.257,1.463-3.536,1.463l0,0C214.316,201.175,213.037,200.687,212.061,199.712&#9;&#9;&#9;L212.061,199.712z"/><path d="M227.617,184.153l-48.791-48.79c-1.952-1.954-1.952-5.118,0-7.072l0,0c1.952-1.952,5.118-1.952,7.07,0l0,0l48.793,48.791&#9;&#9;&#9;c1.951,1.954,1.951,5.119,0,7.071l0,0c-0.978,0.977-2.258,1.464-3.537,1.464l0,0C229.872,185.617,228.593,185.13,227.617,184.153&#9;&#9;&#9;L227.617,184.153z"/><path d="M176.833,132.069l-33.354-83.771l-33.356,83.771h0.002c-1.023,2.564-3.932,3.817-6.497,2.796l0,0&#9;&#9;&#9;c-2.567-1.023-3.817-3.932-2.794-6.496l0,0l38-95.436c0.759-1.907,2.592-3.15,4.646-3.15l0,0c2.053,0,3.884,1.243,4.645,3.15l0,0&#9;&#9;&#9;l38,95.436c1.021,2.566-0.229,5.473-2.796,6.496l0,0c-0.606,0.241-1.232,0.355-1.848,0.355l0,0&#9;&#9;&#9;C179.493,135.221,177.613,134.028,176.833,132.069L176.833,132.069z"/><path d="M123.463,93.257c-2.761,0-5-2.239-5-5l0,0c0-2.762,2.239-4.999,5-4.999l0,0h39.742c2.761,0,5,2.237,5,4.999l0,0&#9;&#9;&#9;c0,2.761-2.239,5-5,5l0,0H123.463L123.463,93.257z"/><path d="M3.15,167.324c-2.564-1.021-3.815-3.931-2.794-6.495l0,0l22-55.252c0.761-1.91,2.591-3.15,4.646-3.15l0,0&#9;&#9;&#9;c2.054,0,3.884,1.243,4.645,3.15l0,0l22,55.252c1.024,2.566-0.229,5.475-2.794,6.495l0,0c-2.567,1.021-5.475-0.229-6.496-2.796l0,0&#9;&#9;&#9;L27.002,120.94L9.646,164.528l0.002,0.002c-0.781,1.958-2.661,3.15-4.648,3.15l0,0C4.384,167.681,3.758,167.566,3.15,167.324&#9;&#9;&#9;L3.15,167.324z"/><path d="M15.414,148.52c-2.762,0-5.001-2.239-5.001-5.001l0,0c0-2.761,2.239-4.999,5.001-4.999l0,0h23.008&#9;&#9;&#9;c2.761,0,5.002,2.238,5.002,4.999l0,0c0,2.762-2.241,5.001-5.002,5.001l0,0H15.414L15.414,148.52z"/>
        </symbol>
    </defs>
</svg>