<svg version="1.1" xmlns="http://www.w3.org/2000/svg" xmlns:xlink="http://www.w3.org/1999/xlink" x="0px" y="0px" viewBox="-10.216 0 272.429 176" enable-background="new 0 0 251.997 176" xml:space="preserve"><path d="M150.669,175.999c-1.553-0.023-2.989-0.756-3.921-2l0,0l-28.501-38H4.999c-1.316,0-2.605-0.532-3.536-1.464l0,0&#9;&#9;&#9;C0.531,133.604,0,132.316,0,131l0,0v-30c0-1.915,1.085-3.654,2.806-4.493l0,0l73.748-36.001c1.201-0.587,2.594-0.665,3.854-0.223&#9;&#9;&#9;l0,0c1.262,0.444,2.295,1.378,2.864,2.588l0,0L97.253,92.58l144.744-58.942V9.999H9.998V56c0,2.761-2.238,4.999-4.999,4.999l0,0&#9;&#9;&#9;C2.238,60.999,0,58.761,0,56l0,0V4.999c0-1.316,0.531-2.604,1.463-3.536l0,0C2.394,0.534,3.683,0,4.999,0l0,0h241.999&#9;&#9;&#9;c1.316,0,2.605,0.534,3.536,1.463l0,0c0.929,0.932,1.463,2.22,1.463,3.536l0,0v32.002c0,2.038-1.227,3.86-3.112,4.628l0,0&#9;&#9;&#9;L96.634,103.631c-2.459,1-5.28-0.1-6.41-2.501l0,0l-13.84-29.413L9.995,104.122V126h110.753c1.571,0,3.059,0.742,3.999,2l0,0&#9;&#9;&#9;l26.128,34.836l27.97-34.959c0.947-1.187,2.385-1.877,3.904-1.877l0,0h59.25V75.999c0-2.761,2.238-4.996,4.999-4.996l0,0&#9;&#9;&#9;c2.761,0,4.999,2.235,4.999,4.996l0,0V131c0,1.335-0.52,2.59-1.463,3.535l0,0c-0.945,0.946-2.2,1.464-3.536,1.464l0,0h-61.845&#9;&#9;&#9;l-30.501,38.123c-0.953,1.192-2.382,1.878-3.905,1.878l0,0C150.721,176,150.695,175.999,150.669,175.999L150.669,175.999z"/><circle fill-rule="evenodd" clip-rule="evenodd" cx="119.249" cy="45.501" r="18.5"/></svg>