<svg version="1.1" xmlns="http://www.w3.org/2000/svg" xmlns:xlink="http://www.w3.org/1999/xlink" x="0px" y="0px" viewBox="-2.214 0 88.574 53.229" enable-background="new 0 0 84.145 53.229" xml:space="preserve"><path d="M9.962,43.885c0-0.923,0.748-1.669,1.669-1.669l0,0h69.177V3.504L52.25,3.505c-0.922,0-1.669-0.747-1.669-1.669l0,0&#9;&#9;&#9;c0-0.922,0.747-1.669,1.669-1.669l0,0h30.226c0.44,0,0.87,0.179,1.181,0.489l0,0c0.311,0.311,0.488,0.74,0.488,1.18l0,0v42.049&#9;&#9;&#9;c0,0.438-0.178,0.868-0.488,1.179l0,0c-0.311,0.311-0.74,0.489-1.181,0.489l0,0H11.631v0.001&#9;&#9;&#9;C10.71,45.554,9.962,44.806,9.962,43.885L9.962,43.885z"/><path d="M22.24,53.229c-0.922,0-1.669-0.748-1.669-1.669l0,0c0-0.921,0.747-1.669,1.669-1.669l0,0h39.713&#9;&#9;&#9;c0.921,0,1.668,0.748,1.668,1.669l0,0c0,0.921-0.747,1.669-1.668,1.669l0,0H22.24L22.24,53.229z"/><path d="M1.621,44.563c-0.651-0.65-0.651-1.708,0-2.358l0,0L43.336,0.488c0.651-0.65,1.708-0.65,2.359,0l0,0&#9;&#9;&#9;c0.652,0.652,0.652,1.709,0,2.36l0,0L3.981,44.563c-0.326,0.326-0.754,0.489-1.181,0.489l0,0&#9;&#9;&#9;C2.374,45.052,1.947,44.889,1.621,44.563L1.621,44.563z"/><path d="M0.609,36.148c-0.651-0.652-0.651-1.708,0-2.359l0,0l33.299-33.3c0.652-0.651,1.708-0.651,2.36,0l0,0&#9;&#9;&#9;c0.651,0.651,0.651,1.708,0,2.359l0,0l-33.3,33.3c-0.326,0.326-0.753,0.488-1.181,0.488l0,0C1.361,36.637,0.935,36.475,0.609,36.148&#9;&#9;&#9;L0.609,36.148z"/><path d="M0.631,26.699c-0.651-0.652-0.651-1.709,0-2.36l0,0l23.85-23.85c0.652-0.652,1.708-0.652,2.359,0l0,0&#9;&#9;&#9;c0.652,0.651,0.652,1.708,0,2.359l0,0L2.99,26.699c-0.326,0.325-0.753,0.488-1.18,0.488l0,0C1.384,27.188,0.957,27.024,0.631,26.699&#9;&#9;&#9;L0.631,26.699z"/><path d="M0.488,17.414c-0.651-0.651-0.651-1.707,0-2.359l0,0L15.053,0.488c0.652-0.651,1.709-0.651,2.36,0l0,0&#9;&#9;&#9;c0.651,0.652,0.651,1.709,0,2.36l0,0L2.847,17.414c-0.325,0.326-0.752,0.489-1.179,0.489l0,0C1.24,17.903,0.813,17.74,0.488,17.414&#9;&#9;&#9;L0.488,17.414z"/><path d="M0.565,7.909c-0.652-0.651-0.652-1.708,0-2.359l0,0l5.061-5.062c0.651-0.651,1.708-0.651,2.359,0l0,0&#9;&#9;&#9;c0.651,0.652,0.651,1.709,0,2.36l0,0L2.925,7.909c-0.326,0.326-0.753,0.489-1.18,0.489l0,0C1.318,8.398,0.891,8.235,0.565,7.909&#9;&#9;&#9;L0.565,7.909z"/></svg>