<svg version="1.1" xmlns="http://www.w3.org/2000/svg" xmlns:xlink="http://www.w3.org/1999/xlink" x="0px" y="0px" viewBox="-21.226 0 62.892 37.43" enable-background="new 0 0 20.44 37.43" xml:space="preserve"><path d="M17.883,16.867h-2.57c-1.478-2.356-3.822-5.611-7.035-9.767c-0.75,0.407-1.371,1.065-1.864,1.976&#9;&#9;&#9;c-0.492,0.91-0.738,1.805-0.738,2.683v5.108H3.361v-4.69c0-1.222,0.396-2.452,1.189-3.695c0.792-1.242,1.744-2.077,2.858-2.506&#9;&#9;&#9;c-0.493-0.685-1.21-1.595-2.152-2.73L2.559,0h2.698c1.285,1.542,3.48,4.338,6.586,8.386c0.686-0.193,1.312-0.686,1.88-1.479&#9;&#9;&#9;c0.566-0.792,0.852-1.553,0.852-2.281V0h2.313v3.662c0,1.329-0.385,2.55-1.156,3.663s-1.777,1.896-3.021,2.346&#9;&#9;&#9;C14.895,12.52,16.619,14.918,17.883,16.867z"/><path d="M9.365,37.118l-8.89-7.452v0.001c-0.563-0.474-0.638-1.313-0.164-1.876l0,0c0.471-0.563,1.311-0.637,1.874-0.165l0,0&#9;&#9;&#9;l8.035,6.735l8.035-6.735c0.563-0.472,1.401-0.397,1.875,0.165l0,0c0.471,0.563,0.396,1.402-0.166,1.875l0,0l-8.889,7.452&#9;&#9;&#9;c-0.249,0.208-0.553,0.312-0.855,0.312l0,0C9.916,37.43,9.613,37.326,9.365,37.118L9.365,37.118z"/></svg>