<svg version="1.1" xmlns="http://www.w3.org/2000/svg" xmlns:xlink="http://www.w3.org/1999/xlink" x="0px" y="0px" viewBox="-26.682 0 194.052 117.99" enable-background="new 0 0 140.688 117.99" xml:space="preserve"><path d="M140.688,117.99H91.245c-8.241-12.885-20.979-31.914-38.206-57.084c-2.101,0.15-3.747,2.696-4.945,7.642&#9;&#9;&#9;c-1.05,3.746-1.572,7.117-1.572,10.111v39.331H4.942V92.594c0-11.536,2.772-21.497,8.317-29.892&#9;&#9;&#9;c5.991-8.989,14.383-14.979,25.171-17.979C27.192,30.341,14.382,15.435,0,0h53.713c7.939,10.338,19.625,26.446,35.06,48.32&#9;&#9;&#9;c3.146-1.496,4.719-7.939,4.719-19.327V0h41.804v15.059c0,25.771-10.94,42.554-32.814,50.343&#9;&#9;&#9;c1.648,2.398,7.34,10.189,17.081,23.371C123.305,94.021,130.35,103.758,140.688,117.99z"/></svg>