<svg version="1.1" xmlns="http://www.w3.org/2000/svg" xmlns:xlink="http://www.w3.org/1999/xlink" x="0px" y="0px" viewBox="-5.738 0 76.515 41.28" enable-background="new 0 0 65.038 41.28" xml:space="preserve"><path d="M62.121,19.896L46.072,8.236c-4.245-3.083-9.146-4.562-14.015-4.562l0,0c-7.391,0.002-14.665,3.41-19.339,9.845l0,0&#9;&#9;&#9;c-0.596,0.82-1.745,1.003-2.565,0.406l0,0C9.331,13.33,9.149,12.18,9.746,11.36l0,0C15.134,3.942,23.544-0.003,32.057,0l0,0&#9;&#9;&#9;c5.612-0.001,11.289,1.713,16.174,5.264l0,0l16.05,11.661c0.82,0.596,1.002,1.746,0.405,2.565l0,0&#9;&#9;&#9;c-0.359,0.495-0.92,0.757-1.488,0.757l0,0C62.824,20.247,62.447,20.133,62.121,19.896L62.121,19.896z"/><path d="M32.98,41.28c-5.612,0.001-11.289-1.714-16.174-5.264l0,0L0.757,24.356c-0.821-0.596-1.003-1.745-0.406-2.565l0,0&#9;&#9;&#9;c0.596-0.821,1.745-1.003,2.566-0.407l0,0l16.049,11.66c4.243,3.082,9.145,4.561,14.014,4.562l0,0&#9;&#9;&#9;c7.391-0.003,14.665-3.411,19.34-9.846l0,0v0.001c0.596-0.821,1.745-1.003,2.565-0.407l0,0c0.821,0.596,1.002,1.745,0.406,2.566l0,0&#9;&#9;&#9;C49.906,37.334,41.5,41.28,32.99,41.28l0,0C32.987,41.28,32.984,41.28,32.98,41.28L32.98,41.28z"/><path d="M32.125,33.106c0-1.014,0.823-1.836,1.837-1.836l0,0c5.813-0.01,10.517-4.714,10.528-10.528l0,0&#9;&#9;&#9;c-0.011-5.814-4.714-10.517-10.528-10.527l0,0c-1.015,0-1.837-0.823-1.837-1.837l0,0c0-1.015,0.823-1.837,1.837-1.837l0,0&#9;&#9;&#9;c7.844,0.001,14.2,6.357,14.202,14.201l0,0c-0.001,7.844-6.358,14.2-14.202,14.202l0,0C32.948,34.943,32.125,34.121,32.125,33.106&#9;&#9;&#9;L32.125,33.106z"/><path d="M25.448,33.165V8.319c0-1.015,0.822-1.837,1.836-1.837l0,0c1.015,0,1.837,0.823,1.837,1.837l0,0v24.845&#9;&#9;&#9;c0,1.014-0.823,1.837-1.837,1.837l0,0C26.271,35.001,25.448,34.179,25.448,33.165L25.448,33.165z"/><path d="M19.303,29.042V12.442c0-1.015,0.822-1.837,1.837-1.837l0,0c1.014,0,1.837,0.822,1.837,1.837l0,0v16.601&#9;&#9;&#9;c0,1.014-0.823,1.836-1.837,1.836l0,0C20.125,30.879,19.303,30.056,19.303,29.042L19.303,29.042z"/><path d="M13.542,23.731v-5.979c0-1.015,0.822-1.837,1.837-1.837l0,0c1.014,0,1.836,0.822,1.836,1.837l0,0v5.979&#9;&#9;&#9;c0,1.015-0.822,1.836-1.836,1.836l0,0C14.365,25.567,13.542,24.746,13.542,23.731L13.542,23.731z"/></svg>