<svg version="1.1" xmlns="http://www.w3.org/2000/svg" xmlns:xlink="http://www.w3.org/1999/xlink" x="0px" y="0px" viewBox="-26.239 0 262.391 201.175" enable-background="new 0 0 236.152 201.175" xml:space="preserve"><path d="M35.477,83.502C35.481,37.384,72.86,0.004,118.979,0l0,0c46.117,0.004,83.496,37.384,83.5,83.502l0,0&#9;&#9;&#9;c-0.004,46.117-37.383,83.496-83.5,83.498l0,0C72.86,166.998,35.481,129.619,35.477,83.502L35.477,83.502z M67.007,31.529&#9;&#9;&#9;C53.696,44.845,45.48,63.189,45.479,83.502l0,0c0.002,20.311,8.218,38.654,21.528,51.971l0,0&#9;&#9;&#9;c13.316,13.309,31.66,21.526,51.973,21.529l0,0c20.311-0.003,38.656-8.221,51.971-21.529l0,0&#9;&#9;&#9;c13.31-13.316,21.526-31.66,21.528-51.971l0,0c-0.002-20.313-8.219-38.657-21.528-51.973l0,0&#9;&#9;&#9;c-13.314-13.31-31.66-21.526-51.971-21.528l0,0C98.667,10.003,80.323,18.22,67.007,31.529L67.007,31.529z"/><path d="M212.061,199.712l-48.792-48.792c-1.951-1.953-1.951-5.118,0-7.071l0,0c1.953-1.953,5.118-1.953,7.071,0l0,0l48.792,48.79&#9;&#9;&#9;c1.952,1.953,1.952,5.117,0,7.073l0,0c-0.977,0.975-2.257,1.463-3.536,1.463l0,0C214.316,201.175,213.037,200.687,212.061,199.712&#9;&#9;&#9;L212.061,199.712z"/><path d="M227.617,184.153l-48.791-48.79c-1.952-1.954-1.952-5.118,0-7.072l0,0c1.952-1.952,5.118-1.952,7.07,0l0,0l48.793,48.791&#9;&#9;&#9;c1.951,1.954,1.951,5.119,0,7.071l0,0c-0.978,0.977-2.258,1.464-3.537,1.464l0,0C229.872,185.617,228.593,185.13,227.617,184.153&#9;&#9;&#9;L227.617,184.153z"/><path d="M176.833,132.069l-33.354-83.771l-33.356,83.771h0.002c-1.023,2.564-3.932,3.817-6.497,2.796l0,0&#9;&#9;&#9;c-2.567-1.023-3.817-3.932-2.794-6.496l0,0l38-95.436c0.759-1.907,2.592-3.15,4.646-3.15l0,0c2.053,0,3.884,1.243,4.645,3.15l0,0&#9;&#9;&#9;l38,95.436c1.021,2.566-0.229,5.473-2.796,6.496l0,0c-0.606,0.241-1.232,0.355-1.848,0.355l0,0&#9;&#9;&#9;C179.493,135.221,177.613,134.028,176.833,132.069L176.833,132.069z"/><path d="M123.463,93.257c-2.761,0-5-2.239-5-5l0,0c0-2.762,2.239-4.999,5-4.999l0,0h39.742c2.761,0,5,2.237,5,4.999l0,0&#9;&#9;&#9;c0,2.761-2.239,5-5,5l0,0H123.463L123.463,93.257z"/><path d="M3.15,167.324c-2.564-1.021-3.815-3.931-2.794-6.495l0,0l22-55.252c0.761-1.91,2.591-3.15,4.646-3.15l0,0&#9;&#9;&#9;c2.054,0,3.884,1.243,4.645,3.15l0,0l22,55.252c1.024,2.566-0.229,5.475-2.794,6.495l0,0c-2.567,1.021-5.475-0.229-6.496-2.796l0,0&#9;&#9;&#9;L27.002,120.94L9.646,164.528l0.002,0.002c-0.781,1.958-2.661,3.15-4.648,3.15l0,0C4.384,167.681,3.758,167.566,3.15,167.324&#9;&#9;&#9;L3.15,167.324z"/><path d="M15.414,148.52c-2.762,0-5.001-2.239-5.001-5.001l0,0c0-2.761,2.239-4.999,5.001-4.999l0,0h23.008&#9;&#9;&#9;c2.761,0,5.002,2.238,5.002,4.999l0,0c0,2.762-2.241,5.001-5.002,5.001l0,0H15.414L15.414,148.52z"/></svg>